<?xml version="1.0" encoding="utf-8"?>
<!-- Generator: Adobe Illustrator 15.1.0, SVG Export Plug-In . SVG Version: 6.00 Build 0)  -->
<!DOCTYPE svg PUBLIC "-//W3C//DTD SVG 1.1//EN" "http://www.w3.org/Graphics/SVG/1.1/DTD/svg11.dtd">
<svg version="1.1" id="Layer_1" xmlns="http://www.w3.org/2000/svg" xmlns:xlink="http://www.w3.org/1999/xlink" x="0px" y="0px"
	 width="87.77px" height="92.229px" viewBox="0 0 87.77 92.229" enable-background="new 0 0 87.77 92.229" xml:space="preserve">
<path fill-rule="evenodd" clip-rule="evenodd" fill="#FFFFFF" d="M65.938,23.435V12.967h-0.056
	C65.305,6.66,51.427,1.615,34.349,1.615c-17.073,0-30.951,5.045-31.53,11.352h-0.07v66.292h0.028
	c0.111,6.455,14.201,11.678,31.572,11.678c17.374,0,31.465-5.223,31.578-11.678h0.011v-6.058c0.54,0.02,1.086,0.055,1.604,0.028
	c12.014-0.612,17.846-13.194,17.591-25.56C84.873,35.225,78.432,23.033,65.938,23.435z M34.042,22.823
	c-2.803,0-5.502-0.144-8.041-0.411l-9.587,6.225l0.084-8.013c-5.574-1.626-9.111-4.001-9.111-6.657
	c0-4.893,11.935-8.859,26.655-8.859c14.725,0,26.66,3.967,26.66,8.859C60.702,18.857,48.766,22.823,34.042,22.823z M65.938,67.146
	V30.604c8.665,0.398,12.819,8.827,12.847,17.512C78.812,57.156,74.372,66.423,65.938,67.146z"/>
</svg>
